{
.appVersion = "3151";
.formatVersion = 3;
customParameters = (
{
name = vendorID;
value = "M+  ";
},
{
name = panose;
value = (
2,
11,
6,
2,
2,
2,
3,
2,
2,
7
);
},
{
name = unicodeRanges;
value = (
0,
1,
2,
3,
4,
5,
6,
7,
9,
11,
24,
29,
30,
31,
32,
33,
35,
36,
37,
38,
39,
40,
42,
43,
44,
45,
46,
47,
48,
49,
50,
54,
57,
59,
61,
62,
65,
68,
89
);
},
{
name = codePageRanges;
value = (
"1252",
"1250",
"1251",
"1253",
"1254",
"1255",
"1257",
"1258",
"932",
"950",
"bit 29",
"bit 30",
"869",
"866",
"865",
"863",
"862",
"861",
"860",
"857",
"855",
"852",
"775",
"737",
"850",
"437"
);
},
{
name = fsType;
value = (
);
}
);
date = "2015-05-28 17:07:45 +0000";
familyName = "Yaku Han RP";
featurePrefixes = (
{
automatic = 1;
code = "languagesystem DFLT dflt;
";
name = Languagesystems;
}
);
features = (
{
automatic = 1;
code = "feature vert;
feature vrt2;
";
tag = aalt;
},
{
automatic = 1;
code = "sub comma-han by comma-han.vert;
sub period-han by period-han.vert;
sub colon.full by colon.full.vert;
sub anglebracketleft by anglebracketleft.vert;
sub anglebracketright by anglebracketright.vert;
sub blacklenticularbracketleft by blacklenticularbracketleft.vert;
sub blacklenticularbracketright by blacklenticularbracketright.vert;
sub cornerbracketleft by cornerbracketleft.vert;
sub cornerbracketright by cornerbracketright.vert;
sub dblanglebracketleft by dblanglebracketleft.vert;
sub dblanglebracketright by dblanglebracketright.vert;
sub tortoiseshellbracketleft by tortoiseshellbracketleft.vert;
sub tortoiseshellbracketright by tortoiseshellbracketright.vert;
sub whitecornerbracketleft by whitecornerbracketleft.vert;
sub whitecornerbracketright by whitecornerbracketright.vert;
sub whitelenticularbracketleft by whitelenticularbracketleft.vert;
sub whitelenticularbracketright by whitelenticularbracketright.vert;
sub braceleft.full by braceleft.full.vert;
sub braceright.full by braceright.full.vert;
sub bracketleft.full by bracketleft.full.vert;

glyphs = (
{
glyphname = "comma-han";
lastChange = "2023-08-28 01:33:28 +0000";
layers = (
{
layerId = m01;
shapes = (
{
closed = 1;
nodes = (
(266,-53,o),
(285,-38,qs),
(303,-24,o),
(309,22,o),
(294,40,qs),
(240,104,o),
(173,176,qs),
(157,193,o),
(111,196,o),
(93,180,qs),
(76,164,o),
(73,117,o),
(89,100,qs),
(157,24,o),
(203,-29,qs),
(219,-47,o)
);
}
);
vertWidth = 1000;
width = 506;
}
);
note = uni3001;
unicode = 12289;
},
{
glyphname = "comma-han.vert";
lastChange = "2023-08-28 01:34:17 +0000";
layers = (
{
layerId = m01;
shapes = (
{
closed = 1;
nodes = (
(886,523,o),
(905,538,qs),
(923,552,o),
(929,598,o),
(914,616,qs),
(860,680,o),
(793,752,qs),
(777,769,o),
(731,772,o),
(713,756,qs),
(696,740,o),
(693,693,o),
(709,676,qs),
(777,600,o),
(823,547,qs),
(839,529,o)
);
}
);
vertWidth = 534;
width = 1000;
}
);
note = glyph08466;
},
{
glyphname = "period-han";
lastChange = "2023-08-28 01:33:33 +0000";
layers = (
{
layerId = m01;
shapes = (
{
closed = 1;
nodes = (
(292,39,o),
(245,-8,o),
(179,-8,o),
(132,39,o),
(132,105,o),
(179,152,o),
(245,152,o),
(292,105,o)
);
},
{
closed = 1;
nodes = (
(372,138,o),
(278,232,o),
(146,232,o),
(52,138,o),
(52,6,o),
(146,-88,o),
(278,-88,o),
(372,6,o)
);
}
);
vertWidth = 1000;
width = 772;
}
);
note = uni3002;
unicode = 12290;
},
{
glyphname = "period-han.vert";
lastChange = "2023-08-28 01:34:24 +0000";
layers = (
{
layerId = m01;
shapes = (
{
closed = 1;
nodes = (
(868,615,o),
(821,568,o),
(755,568,o),
(708,615,o),
(708,681,o),
(755,728,o),
(821,728,o),
(868,681,o)
);
},
{
closed = 1;
nodes = (
(948,714,o),
(854,808,o),
(722,808,o),
(628,714,o),
(628,582,o),
(722,488,o),
(854,488,o),
(948,582,o)
);
}
);
vertWidth = 772;
width = 1000;
}
);
note = glyph08467;
},
{
glyphname = "dot-kata";
lastChange = "2023-08-28 01:33:39 +0000";
layers = (
{
layerId = m01;
shapes = (
{
closed = 1;
nodes = (
(266,285,o),
(300,319,o),
(300,342,qs),
(300,378,ls),
(300,401,o),
(266,435,o),
(243,435,qs),
(207,435,ls),
(184,435,o),
(150,401,o),
(150,378,qs),
(150,342,ls),
(150,319,o),
(184,285,o),
(207,285,qs),
(243,285,ls)
);
}
);
vertWidth = 1000;
width = 450;
}
);
note = uni30FB;
unicode = 12539;
},
{
glyphname = hyphenationpoint;
lastChange = "2023-08-28 01:33:39 +0000";
layers = (
{
layerId = m01;
shapes = (
{
closed = 1;
nodes = (
(246,215,o),
(280,249,o),
(280,272,qs),
(280,308,ls),
(280,331,o),
(246,365,o),
(223,365,qs),
(207,365,ls),
(184,365,o),
(150,331,o),
(150,308,qs),
(150,272,ls),
(150,249,o),
(184,215,o),
(207,215,qs),
(223,215,ls)
);
}
);
vertWidth = 1000;
width = 430;
}
);
note = uni2027;
unicode = 8231;
},
{
glyphname = colon.full;
lastChange = "2023-08-28 01:33:39 +0000";
layers = (
{
layerId = m01;
shapes = (
{
closed = 1;
nodes = (
(246,70,o),
(280,104,o),
(280,127,qs),
(280,163,ls),
(280,186,o),
(246,220,o),
(223,220,qs),
(207,220,ls),
(184,220,o),
(150,186,o),
(150,163,qs),
(150,127,ls),
(150,104,o),
(184,70,o),
(207,70,qs),
(223,70,ls)
);
},
{
closed = 1;
nodes = (
(246,500,o),
(280,534,o),
(280,557,qs),
(280,593,ls),
(280,616,o),
(246,650,o),
(223,650,qs),
(207,650,ls),
(184,650,o),
(150,616,o),
(150,593,qs),
(150,557,ls),
(150,534,o),
(184,500,o),
(207,500,qs),
(223,500,ls)
);
}
);
vertWidth = 1000;
width = 430;
}
);
note = uniFF1A;
unicode = 65306;
},
{
glyphname = exclam.full;
lastChange = "2023-08-28 01:33:39 +0000";
layers = (
{
layerId = m01;
shapes = (
{
closed = 1;
nodes = (
(264,260,qs),
(276,673,ls),
(277,696,o),
(244,730,o),
(221,730,qs),
(205,730,ls),
(182,730,o),
(149,696,o),
(150,673,qs),
(162,260,ls),
(163,239,o),
(192,210,o),
(234,210,o),
(263,239,o)
);
},
{
closed = 1;
nodes = (
(187,130,o),
(153,96,o),
(153,73,qs),
(153,57,ls),
(153,34,o),
(187,0,o),
(210,0,qs),
(216,0,ls),
(239,0,o),
(273,34,o),
(273,57,qs),
(273,73,ls),
(273,96,o),
(239,130,o),
(216,130,qs),
(210,130,ls)
);
}
);
vertWidth = 1000;
width = 426;
}
);
note = uniFF01;
unicode = 65281;
},
{
glyphname = question.full;
lastChange = "2023-08-28 01:33:39 +0000";
layers = (
{
layerId = m01;
shapes = (
{
closed = 1;
nodes = (
(391,648,qs),
(556,648,o),
(556,560,qs),
(556,538,o),
(541,502,o),
(504,468,o),
(480,450,o),
(452,432,qs),
(414,407,o),
(371,375,o),
(321,308,o),
(312,269,qs),
(307,248,o),
(338,215,o),
(361,215,qs),
(383,215,o),
(417,247,o),
(425,270,qs),
(434,297,o),
(476,345,o),
(511,371,o),
(543,391,qs),
(575,412,o),
(609,437,o),
(652,481,o),
(671,535,o),
(671,570,qs),
(671,647,o),
(533,740,o),
(406,740,qs),
(298,740,o),
(187,716,qs),
(167,711,o),
(147,678,o),
(155,640,o),
(188,620,o),
(207,625,qs),
(303,648,o)
);
},
{
closed = 1;
nodes = (
(301,96,o),
(301,73,qs),
(301,57,ls),
(301,34,o),
(335,0,o),
(358,0,qs),
(364,0,ls),
(387,0,o),
(421,34,o),
(421,57,qs),
(421,73,ls),
(421,96,o),
(387,130,o),
(364,130,qs),
(358,130,ls),
(335,130,o)
);
}
);
vertWidth = 1000;
width = 821;
}
);
note = uniFF1F;
unicode = 65311;
},
{
glyphname = semicolon.full;
lastChange = "2023-08-28 01:33:39 +0000";
layers = (
{
layerId = m01;
shapes = (
{
closed = 1;
nodes = (
(258,6,qs),
(327,168,ls),
(335,187,o),
(312,220,o),
(292,220,qs),
(266,220,ls),
(241,220,o),
(201,189,o),
(194,165,qs),
(152,8,ls),
(147,-10,o),
(170,-40,o),
(189,-40,qs),
(238,-40,o)
);
},
{
closed = 1;
nodes = (
(209,616,o),
(209,593,qs),
(209,557,ls),
(209,534,o),
(243,500,o),
(266,500,qs),
(282,500,ls),
(305,500,o),
(339,534,o),
(339,557,qs),
(339,593,ls),
(339,616,o),
(305,650,o),
(282,650,qs),
(266,650,ls),
(243,650,o)
);
}
);
vertWidth = 1000;
width = 489;
}
);
note = uniFF1B;
unicode = 65307;
},
{
glyphname = colon.full.vert;
lastChange = "2023-08-27 07:25:19 +0000";
layers = (
{
layerId = m01;
shapes = (
{
closed = 1;
nodes = (
(531,70,o),
(565,104,o),
(565,127,qs),
(565,163,ls),
(565,186,o),
(531,220,o),
(508,220,qs),
(492,220,ls),
(469,220,o),
(435,186,o),
(435,163,qs),
(435,127,ls),
(435,104,o),
(469,70,o),
(492,70,qs),
(508,70,ls)
);
},
{
closed = 1;
nodes = (
(531,500,o),
(565,534,o),
(565,557,qs),
(565,593,ls),
(565,616,o),
(531,650,o),
(508,650,qs),
(492,650,ls),
(469,650,o),
(435,616,o),
(435,593,qs),
(435,557,ls),
(435,534,o),
(469,500,o),
(492,500,qs),
(508,500,ls)
);
}
);
vertWidth = 1000;
width = 1000;
}
);
note = glyph08518;
},
{
glyphname = angleLeft;
lastChange = "2023-08-28 01:33:57 +0000";
layers = (
{
layerId = m01;
shapes = (
{
closed = 1;
nodes = (
(484,-155,o),
(510,-155,qs),
(528,-155,o),
(546,-124,o),
(538,-108,q),
(300,300,ls),
(295,308,o),
(300,315,q),
(538,723,l),
(546,739,o),
(528,770,o),
(510,770,qs),
(484,770,o),
(440,745,o),
(428,723,qs),
(214,356,ls),
(200,334,o),
(200,282,o),
(214,259,qs),
(428,-108,ls),
(440,-130,o)
);
}
);
vertWidth = 1000;
width = 579;
}
);
note = angleleft;
unicode = 9001;
},
{
glyphname = angleRight;
lastChange = "2023-08-28 01:34:11 +0000";
layers = (
{
layerId = m01;
shapes = (
{
closed = 1;
nodes = (
(51,-155,o),
(69,-155,qs),
(95,-155,o),
(138,-130,o),
(151,-108,qs),
(365,259,ls),
(379,282,o),
(379,334,o),
(365,356,qs),
(151,722,ls),
(138,744,o),
(94,770,o),
(69,770,qs),
(51,770,o),
(32,738,o),
(41,722,qs),
(279,315,l),
(284,308,o),
(279,300,qs),
(41,-108,ls),
(32,-124,o)
);
}
);
vertWidth = 1000;
width = 579;
}
);
note = angleright;
unicode = 9002;
},
{
glyphname = anglebracketleft;
lastChange = "2023-08-28 01:33:57 +0000";
layers = (
{
layerId = m01;
shapes = (
{
closed = 1;
nodes = (
(510,-102,qs),
(528,-102,o),
(546,-71,o),
(537,-55,qs),
(299,353,ls),
(295,360,o),
(299,367,qs),
(537,775,ls),
(546,791,o),
(528,823,o),
(510,823,qs),
(455,823,o),
(427,775,qs),
(214,409,ls),
(185,360,o),
(214,311,qs),
(427,-55,ls),
(455,-102,o)
);
}
);
vertWidth = 1000;
width = 660;
}
);
note = uni3008;
unicode = 12296;
},
{
glyphname = anglebracketright;
lastChange = "2023-08-28 01:34:11 +0000";
layers = (
{
layerId = m01;
shapes = (
{
closed = 1;
nodes = (
(114,791,o),
(123,775,qs),
(361,367,ls),
(365,360,o),
(361,353,qs),
(123,-55,ls),
(114,-71,o),
(132,-102,o),
(150,-102,qs),
(205,-102,o),
(233,-55,qs),
(446,311,ls),
(475,360,o),
(446,409,qs),
(233,775,ls),
(205,822,o),
(150,822,qs),
(132,822,o)
);
}
);
vertWidth = 1000;
width = 660;
}
);
note = uni3009;
unicode = 12297;
},
{
glyphname = blacklenticularbracketleft;
lastChange = "2023-08-28 01:33:57 +0000";
layers = (
{
layerId = m01;
shapes = (
{
closed = 1;
nodes = (
(464,-102,o),
(476,-73,o),
(465,-61,qs),
(388,26,o),
(305,245,o),
(305,475,o),
(388,694,o),
(465,781,qs),
(476,793,o),
(464,822,o),
(448,822,qs),
(257,822,ls),
(234,822,o),
(200,789,o),
(200,766,qs),
(200,-46,ls),
(200,-69,o),
(234,-102,o),
(257,-102,qs),
(448,-102,ls)
);
}
);
vertWidth = 1000;
width = 600;
}
);
note = uni3010;
unicode = 12304;
},
{
glyphname = blacklenticularbracketright;
lastChange = "2023-08-28 01:34:11 +0000";
layers = (
{
layerId = m01;
shapes = (
{
closed = 1;
nodes = (
(366,-102,o),
(400,-69,o),
(400,-46,qs),
(400,766,ls),
(400,789,o),
(366,822,o),
(343,822,qs),
(152,822,ls),
(136,822,o),
(124,793,o),
(135,781,qs),
(212,694,o),
(295,475,o),
(295,245,o),
(212,26,o),
(135,-61,qs),
(124,-73,o),
(136,-102,o),
(152,-102,qs),
(343,-102,ls)
);
}
);
vertWidth = 1000;
width = 600;
}
);
note = uni3011;
unicode = 12305;
},
{
glyphname = braceleft.full;
lastChange = "2023-08-28 01:33:57 +0000";
layers = (
{
layerId = m01;
shapes = (
{
closed = 1;
nodes = (
(455,455,o),
(455,518,qs),
(455,638,ls),
(455,704,o),
(493,742,o),
(550,742,qs),
(640,742,ls),
(656,742,o),
(680,766,o),
(680,798,o),
(656,822,o),
(640,822,qs),
(500,822,ls),
(423,822,o),
(355,751,o),
(355,668,qs),
(355,522,ls),
(355,402,o),
(270,402,qs),
(242,402,ls),
(225,402,o),
(200,377,o),
(200,343,o),
(225,318,o),
(242,318,qs),
(270,318,ls),
(355,318,o),
(355,198,qs),
(355,52,ls),
(355,-31,o),
(423,-102,o),
(500,-102,qs),
(640,-102,ls),
(656,-102,o),
(680,-78,o),
(680,-46,o),
(656,-22,o),
(640,-22,qs),
(550,-22,ls),
(493,-22,o),
(455,16,o),
(455,82,qs),
(455,202,ls),
(455,265,o),
(412,336,o),
(362,358,q),
(360,358,o),
(360,362,o),
(362,362,q),
(412,384,o)
);
}
);
vertWidth = 1000;
width = 790;
}
);
note = uniFF5B;
unicode = 65371;
},
{
glyphname = braceright.full;
lastChange = "2023-08-28 01:34:11 +0000";
layers = (
{
layerId = m01;
shapes = (
{
closed = 1;
nodes = (
(335,265,o),
(335,202,qs),
(335,82,ls),
(335,16,o),
(297,-22,o),
(240,-22,qs),
(150,-22,ls),
(134,-22,o),
(110,-46,o),
(110,-78,o),
(134,-102,o),
(150,-102,qs),
(290,-102,ls),
(367,-102,o),
(435,-31,o),
(435,52,qs),
(435,198,ls),
(435,318,o),
(520,318,qs),
(548,318,ls),
(565,318,o),
(590,343,o),
(590,377,o),
(565,402,o),
(548,402,qs),
(520,402,ls),
(435,402,o),
(435,522,qs),
(435,668,ls),
(435,751,o),
(367,822,o),
(290,822,qs),
(150,822,ls),
(134,822,o),
(110,798,o),
(110,766,o),
(134,742,o),
(150,742,qs),
(240,742,ls),
(297,742,o),
(335,704,o),
(335,638,qs),
(335,518,ls),
(335,455,o),
(378,384,o),
(428,362,q),
(430,362,o),
(430,358,o),
(428,358,q),
(378,336,o)
);
}
);
vertWidth = 1000;
width = 790;
}
);
note = uniFF5D;
unicode = 65373;
},
{
glyphname = cornerbracketleft;
lastChange = "2023-08-28 01:33:57 +0000";
layers = (
{
layerId = m01;
shapes = (
{
closed = 1;
nodes = (
(300,115,qs),
(300,731,ls),
(300,740,o),
(309,740,qs),
(557,740,ls),
(574,740,o),
(600,765,o),
(600,799,o),
(574,825,o),
(557,825,qs),
(257,825,ls),
(234,825,o),
(200,791,o),
(200,768,qs),
(200,115,ls),
(200,94,o),
(229,65,o),
(271,65,o),
(300,94,o)
);
}
);
vertWidth = 1000;
width = 665;
}
);
note = uni300C;
unicode = 12300;
},
{
glyphname = cornerbracketright;
lastChange = "2023-08-28 01:34:11 +0000";
layers = (
{
layerId = m01;
shapes = (
{
closed = 1;
nodes = (
(431,-105,o),
(465,-71,o),
(465,-48,qs),
(465,605,ls),
(465,626,o),
(436,655,o),
(394,655,o),
(365,626,o),
(365,605,qs),
(365,-11,ls),
(365,-20,o),
(356,-20,qs),
(108,-20,ls),
(91,-20,o),
(65,-45,o),
(65,-79,o),
(91,-105,o),
(108,-105,qs),
(408,-105,ls)
);
}
);
vertWidth = 1000;
width = 665;
}
);
note = uni300D;
unicode = 12301;
},
{
glyphname = dblanglebracketleft;
lastChange = "2023-08-28 01:33:57 +0000";
layers = (
{
layerId = m01;
shapes = (
{
closed = 1;
nodes = (
(694,822,o),
(677,822,qs),
(625,822,o),
(599,777,qs),
(384,409,ls),
(355,360,o),
(384,311,qs),
(599,-57,ls),
(625,-102,o),
(677,-102,qs),
(694,-102,o),
(713,-72,o),
(704,-57,qs),
(464,353,ls),
(460,360,o),
(464,367,qs),
(704,777,ls),
(713,792,o)
);
},
{
closed = 1;
nodes = (
(507,-102,qs),
(524,-102,o),
(543,-72,o),
(534,-57,qs),
(294,353,ls),
(290,360,o),
(294,367,qs),
(534,777,ls),
(543,792,o),
(524,822,o),
(507,822,qs),
(455,822,o),
(429,777,qs),
(214,409,ls),
(185,360,o),
(214,311,qs),
(429,-57,ls),
(455,-102,o)
);
}
);
vertWidth = 1000;
width = 825;
}
);
note = uni300A;
unicode = 12298;
},
{
glyphname = dblanglebracketright;
lastChange = "2023-08-28 01:34:11 +0000";
layers = (
{
layerId = m01;
shapes = (
{
closed = 1;
nodes = (
(200,822,o),
(148,822,qs),
(131,822,o),
(112,792,o),
(121,777,qs),
(361,367,ls),
(365,360,o),
(361,353,qs),
(121,-57,ls),
(112,-72,o),
(131,-102,o),
(148,-102,qs),
(200,-102,o),
(226,-57,qs),
(441,311,ls),
(470,360,o),
(441,409,qs),
(226,777,ls)
);
},
{
closed = 1;
nodes = (
(282,792,o),
(291,777,qs),
(531,367,ls),
(535,360,o),
(531,353,qs),
(291,-57,ls),
(282,-72,o),
(301,-102,o),
(318,-102,qs),
(370,-102,o),
(396,-57,qs),
(611,311,ls),
(640,360,o),
(611,409,qs),
(396,777,ls),
(370,822,o),
(318,822,qs),
(301,822,o)
);
}
);
vertWidth = 1000;
width = 825;
}
);
note = uni300B;
unicode = 12299;
},
{
glyphname = tortoiseshellbracketleft;
lastChange = "2023-08-28 01:33:57 +0000";
layers = (
{
layerId = m01;
shapes = (
{
closed = 1;
nodes = (
(545,-100,o),
(570,-82,o),
(570,-66,qs),
(570,-47,o),
(548,-16,o),
(530,-11,qs),
(308,58,ls),
(300,61,o),
(300,69,qs),
(300,651,ls),
(300,659,o),
(308,662,qs),
(530,731,ls),
(548,736,o),
(570,767,o),
(570,786,qs),
(570,802,o),
(545,820,o),
(530,815,qs),
(254,729,ls),
(230,721,o),
(200,681,o),
(200,656,qs),
(200,64,ls),
(200,39,o),
(230,-1,o),
(254,-9,qs),
(530,-95,ls)
);
}
);
vertWidth = 1000;
width = 690;
}
);
note = uni3014;
unicode = 12308;
},
{
glyphname = tortoiseshellbracketright;
lastChange = "2023-08-28 01:34:11 +0000";
layers = (
{
layerId = m01;
shapes = (
{
closed = 1;
nodes = (
(142,-16,o),
(120,-47,o),
(120,-66,qs),
(120,-82,o),
(145,-100,o),
(160,-95,qs),
(436,-9,ls),
(460,-1,o),
(490,39,o),
(490,64,qs),
(490,656,ls),
(490,681,o),
(460,721,o),
(436,729,qs),
(160,815,ls),
(145,820,o),
(120,802,o),
(120,786,qs),
(120,767,o),
(142,736,o),
(160,731,qs),
(382,662,ls),
(390,659,o),
(390,651,qs),
(390,69,ls),
(390,61,o),
(382,58,qs),
(160,-11,ls)
);
}
);
vertWidth = 1000;
width = 690;
}
);
note = uni3015;
unicode = 12309;
},
{
glyphname = whitecornerbracketleft;
lastChange = "2023-08-28 01:33:57 +0000";
layers = (
{
layerId = m01;
shapes = (
{
closed = 1;
nodes = (
(269,765,qs),
(571,765,ls),
(580,765,o),
(580,756,qs),
(580,698,ls),
(580,690,o),
(571,690,qs),
(392,690,ls),
(369,690,o),
(335,656,o),
(335,633,qs),
(335,94,ls),
(335,85,o),
(327,85,qs),
(269,85,ls),
(260,85,o),
(260,94,qs),
(260,756,ls),
(260,765,o)
);
},
{
closed = 1;
nodes = (
(338,25,ls),
(361,25,o),
(395,59,o),
(395,82,qs),
(395,621,ls),
(395,630,o),
(404,630,qs),
(583,630,ls),
(606,630,o),
(640,664,o),
(640,687,qs),
(640,768,ls),
(640,791,o),
(606,825,o),
(583,825,qs),
(257,825,ls),
(234,825,o),
(200,791,o),
(200,768,qs),
(200,82,ls),
(200,59,o),
(234,25,o),
(257,25,qs),
(260,25,l)
);
}
);
vertWidth = 1000;
width = 705;
}
);
note = uni300E;
unicode = 12302;
},
{
glyphname = whitecornerbracketright;
lastChange = "2023-08-28 01:34:11 +0000";
layers = (
{
layerId = m01;
shapes = (
{
closed = 1;
nodes = (
(134,30,qs),
(313,30,ls),
(336,30,o),
(370,64,o),
(370,87,qs),
(370,626,ls),
(370,635,o),
(379,635,qs),
(436,635,ls),
(445,635,o),
(445,626,qs),
(445,-36,ls),
(445,-45,o),
(436,-45,qs),
(134,-45,ls),
(125,-45,o),
(125,-36,qs),
(125,21,ls),
(125,30,o)
);
},
{
closed = 1;
nodes = (
(471,-105,o),
(505,-71,o),
(505,-48,qs),
(505,638,ls),
(505,661,o),
(471,695,o),
(448,695,qs),
(445,695,l),
(367,695,ls),
(344,695,o),
(310,661,o),
(310,638,qs),
(310,99,ls),
(310,90,o),
(301,90,qs),
(122,90,ls),
(99,90,o),
(65,56,o),
(65,33,qs),
(65,-48,ls),
(65,-71,o),
(99,-105,o),
(122,-105,qs),
(448,-105,ls)
);
}
);
vertWidth = 1000;
width = 705;
}
);
note = uni300F;
unicode = 12303;
},
{
glyphname = whitelenticularbracketleft;
lastChange = "2023-08-28 01:33:57 +0000";
layers = (
{
layerId = m01;
shapes = (
{
closed = 1;
nodes = (
(269,762,qs),
(440,762,ls),
(448,762,o),
(444,756,qs),
(325,576,o),
(325,144,o),
(444,-36,qs),
(448,-42,o),
(440,-42,qs),
(269,-42,ls),
(260,-42,o),
(260,-34,qs),
(260,754,ls),
(260,762,o)
);
},
{
closed = 1;
nodes = (
(525,-102,o),
(538,-73,o),
(528,-60,qs),
(459,27,o),
(385,245,o),
(385,475,o),
(459,693,o),
(528,780,qs),
(538,793,o),
(525,822,o),
(508,822,qs),
(257,822,ls),
(234,822,o),
(200,789,o),
(200,766,qs),
(200,-46,ls),
(200,-69,o),
(234,-102,o),
(257,-102,qs),
(508,-102,ls)
);
}
);
vertWidth = 1000;
width = 660;
}
);
note = uni3016;
unicode = 12310;
},
{
glyphname = whitelenticularbracketright;
lastChange = "2023-08-28 01:34:11 +0000";
layers = (
{
layerId = m01;
shapes = (
{
closed = 1;
nodes = (
(335,576,o),
(216,756,qs),
(212,762,o),
(220,762,qs),
(392,762,ls),
(400,762,o),
(400,754,qs),
(400,-34,ls),
(400,-43,o),
(392,-43,qs),
(220,-43,ls),
(217,-43,o),
(214,-38,o),
(216,-36,q),
(335,144,o)
);
},
{
closed = 1;
nodes = (
(426,-102,o),
(460,-69,o),
(460,-46,qs),
(460,766,ls),
(460,789,o),
(426,822,o),
(403,822,qs),
(152,822,ls),
(135,822,o),
(122,793,o),
(132,780,qs),
(201,693,o),
(275,475,o),
(275,245,o),
(201,27,o),
(132,-60,qs),
(122,-73,o),
(135,-102,o),
(152,-102,qs),
(403,-102,ls)
);
}
);
vertWidth = 1000;
width = 660;
}
);
note = uni3017;
unicode = 12311;
},
{
glyphname = anglebracketleft.vert;
lastChange = "2023-08-28 01:34:34 +0000";
layers = (
{
layerId = m01;
shapes = (
{
closed = 1;
nodes = (
(38,350,qs),
(38,332,o),
(69,314,o),
(85,323,qs),
(493,561,ls),
(500,565,o),
(507,561,qs),
(915,323,ls),
(931,314,o),
(963,332,o),
(963,350,qs),
(963,405,o),
(915,433,qs),
(549,646,ls),
(500,675,o),
(451,646,qs),
(85,433,ls),
(38,405,o)
);
}
);
vertWidth = 660;
width = 1000;
}
);
note = glyph08468;
},
{
glyphname = anglebracketright.vert;
lastChange = "2023-08-28 01:34:40 +0000";
layers = (
{
layerId = m01;
shapes = (
{
closed = 1;
nodes = (
(931,746,o),
(915,737,qs),
(507,499,ls),
(500,495,o),
(493,499,qs),
(85,737,ls),
(69,746,o),
(38,728,o),
(38,710,qs),
(38,655,o),
(85,627,qs),
(451,414,ls),
(500,385,o),
(549,414,qs),
(915,627,ls),
(962,655,o),
(962,710,qs),
(962,728,o)
);
}
);
vertWidth = 660;
width = 1000;
}
);
note = glyph08469;
},
{
glyphname = blacklenticularbracketleft.vert;
lastChange = "2023-08-28 01:34:47 +0000";
layers = (
{
layerId = m01;
shapes = (
{
closed = 1;
nodes = (
(38,396,o),
(67,384,o),
(79,395,qs),
(166,472,o),
(385,555,o),
(615,555,o),
(834,472,o),
(921,395,qs),
(933,384,o),
(962,396,o),
(962,412,qs),
(962,603,ls),
(962,626,o),
(929,660,o),
(906,660,qs),
(94,660,ls),
(71,660,o),
(38,626,o),
(38,603,qs),
(38,412,ls)
);
}
);
vertWidth = 600;
width = 1000;
}
);
note = glyph08476;
},
{
glyphname = blacklenticularbracketright.vert;
lastChange = "2023-08-28 01:34:53 +0000";
layers = (
{
layerId = m01;
shapes = (
{
closed = 1;
nodes = (
(38,494,o),
(71,460,o),
(94,460,qs),
(906,460,ls),
(929,460,o),
(962,494,o),
(962,517,qs),
(962,708,ls),
(962,724,o),
(933,736,o),
(921,725,qs),
(834,648,o),
(615,565,o),
(385,565,o),
(166,648,o),
(79,725,qs),
(67,736,o),
(38,724,o),
(38,708,qs),
(38,517,ls)
);
}
);
vertWidth = 600;
width = 1000;
}
);
note = glyph08477;
},
{
glyphname = bracketleft.full;
lastChange = "2023-08-28 01:33:57 +0000";
layers = (
{
layerId = m01;
shapes = (
{
closed = 1;
nodes = (
(546,-102,o),
(570,-78,o),
(570,-46,o),
(546,-22,o),
(530,-22,qs),
(309,-22,ls),
(300,-22,o),
(300,-14,qs),
(300,734,ls),
(300,743,o),
(309,743,qs),
(530,743,ls),
(546,743,o),
(570,766,o),
(570,800,o),
(546,823,o),
(530,823,qs),
(257,823,ls),
(234,823,o),
(200,789,o),
(200,766,qs),
(200,-46,ls),
(200,-69,o),
(234,-102,o),
(257,-102,qs),
(530,-102,ls)
);
}
);
vertWidth = 1000;
width = 690;
}
);
note = uniFF3B;
unicode = 65339;
},
{
glyphname = bracketright.full;
lastChange = "2023-08-28 01:34:11 +0000";
layers = (
{
layerId = m01;
shapes = (
{
closed = 1;
nodes = (
(144,-22,o),
(120,-46,o),
(120,-78,o),
(144,-102,o),
(160,-102,qs),
(433,-102,ls),
(456,-102,o),
(490,-69,o),
(490,-46,qs),
(490,766,ls),
(490,789,o),
(456,822,o),
(433,822,qs),
(160,822,ls),
(144,822,o),
(120,798,o),
(120,766,o),
(144,742,o),
(160,742,qs),
(381,742,ls),
(390,742,o),
(390,734,qs),
(390,-14,ls),
(390,-22,o),
(381,-22,qs),
(160,-22,ls)
);
}
);
vertWidth = 1000;
width = 690;
}
);
note = uniFF3D;
unicode = 65341;
},
{
glyphname = cornerbracketleft.vert;
lastChange = "2023-08-28 01:35:00 +0000";
layers = (
{
layerId = m01;
shapes = (
{
closed = 1;
nodes = (
(255,560,qs),
(871,560,ls),
(880,560,o),
(880,551,qs),
(880,303,ls),
(880,286,o),
(905,260,o),
(939,260,o),
(965,286,o),
(965,303,qs),
(965,603,ls),
(965,626,o),
(931,660,o),
(908,660,qs),
(255,660,ls),
(234,660,o),
(205,631,o),
(205,589,o),
(234,560,o)
);
}
);
vertWidth = 665;
width = 1000;
}
);
note = glyph08472;
},
{
glyphname = cornerbracketright.vert;
lastChange = "2023-08-28 01:35:06 +0000";
layers = (
{
layerId = m01;
shapes = (
{
closed = 1;
nodes = (
(35,429,o),
(69,395,o),
(92,395,qs),
(745,395,ls),
(766,395,o),
(795,424,o),
(795,466,o),
(766,495,o),
(745,495,qs),
(129,495,ls),
(120,495,o),
(120,504,qs),
(120,752,ls),
(120,769,o),
(95,795,o),
(61,795,o),
(35,769,o),
(35,752,qs),
(35,452,ls)
);
}
);
vertWidth = 665;
width = 1000;
}
);
note = glyph08473;
},
{
glyphname = dblanglebracketleft.vert;
lastChange = "2023-08-28 01:35:12 +0000";
layers = (
{
layerId = m01;
shapes = (
{
closed = 1;
nodes = (
(962,166,o),
(962,183,qs),
(962,235,o),
(917,261,qs),
(549,476,ls),
(500,505,o),
(451,476,qs),
(83,261,ls),
(38,235,o),
(38,183,qs),
(38,166,o),
(68,147,o),
(83,156,qs),
(493,396,ls),
(500,400,o),
(507,396,qs),
(917,156,ls),
(932,147,o)
);
},
{
closed = 1;
nodes = (
(38,353,qs),
(38,336,o),
(68,317,o),
(83,326,qs),
(493,566,ls),
(500,570,o),
(507,566,qs),
(917,326,ls),
(932,317,o),
(962,336,o),
(962,353,qs),
(962,405,o),
(917,431,qs),
(549,646,ls),
(500,675,o),
(451,646,qs),
(83,431,ls),
(38,405,o)
);
}
);
vertWidth = 825;
width = 1000;
}
);
note = glyph08470;
},
{
glyphname = dblanglebracketright.vert;
lastChange = "2023-08-28 01:35:18 +0000";
layers = (
{
layerId = m01;
shapes = (
{
closed = 1;
nodes = (
(962,660,o),
(962,712,qs),
(962,729,o),
(932,748,o),
(917,739,qs),
(507,499,ls),
(500,495,o),
(493,499,qs),
(83,739,ls),
(68,748,o),
(38,729,o),
(38,712,qs),
(38,660,o),
(83,634,qs),
(451,419,ls),
(500,390,o),
(549,419,qs),
(917,634,ls)
);
},
{
closed = 1;
nodes = (
(932,578,o),
(917,569,qs),
(507,329,ls),
(500,325,o),
(493,329,qs),
(83,569,ls),
(68,578,o),
(38,559,o),
(38,542,qs),
(38,490,o),
(83,464,qs),
(451,249,ls),
(500,220,o),
(549,249,qs),
(917,464,ls),
(962,490,o),
(962,542,qs),
(962,559,o)
);
}
);
vertWidth = 825;
width = 1000;
}
);
note = glyph08471;
},
{
glyphname = parenleft.full;
lastChange = "2023-08-28 01:33:57 +0000";
layers = (
{
layerId = m01;
shapes = (
{
closed = 1;
nodes = (
(492,-77,o),
(483,-68,qs),
(305,112,o),
(305,608,o),
(483,788,qs),
(493,798,o),
(483,822,o),
(470,822,qs),
(416,822,o),
(382,788,qs),
(294,702,o),
(200,482,o),
(200,238,o),
(294,18,o),
(382,-68,qs),
(416,-102,o),
(470,-102,qs),
(482,-102,o)
);
}
);
vertWidth = 1000;
width = 625;
}
);
note = uniFF08;
unicode = 65288;
},
{
glyphname = parenright.full;
lastChange = "2023-08-28 01:34:11 +0000";
layers = (
{
layerId = m01;
shapes = (
{
closed = 1;
nodes = (
(243,-68,qs),
(331,18,o),
(425,238,o),
(425,482,o),
(331,702,o),
(243,788,qs),
(209,822,o),
(155,822,qs),
(143,822,o),
(133,797,o),
(142,788,qs),
(320,608,o),
(320,112,o),
(142,-68,qs),
(132,-78,o),
(142,-102,o),
(155,-102,qs),
(209,-102,o)
);
}
);
vertWidth = 1000;
width = 625;
}
);
note = uniFF09;
unicode = 65289;
},
{
glyphname = tortoiseshellbracketleft.vert;
lastChange = "2023-08-28 01:35:24 +0000";
layers = (
{
layerId = m01;
shapes = (
{
closed = 1;
nodes = (
(40,315,o),
(58,290,o),
(74,290,qs),
(93,290,o),
(124,312,o),
(129,330,qs),
(198,552,ls),
(201,560,o),
(209,560,qs),
(791,560,ls),
(799,560,o),
(802,552,qs),
(871,330,ls),
(876,312,o),
(907,290,o),
(926,290,qs),
(942,290,o),
(960,315,o),
(955,330,qs),
(869,606,ls),
(861,630,o),
(821,660,o),
(796,660,qs),
(204,660,ls),
(179,660,o),
(139,630,o),
(131,606,qs),
(45,330,ls)
);
}
);
vertWidth = 690;
width = 1000;
}
);
note = glyph08479;
},
{
glyphname = tortoiseshellbracketright.vert;
lastChange = "2023-08-28 01:35:30 +0000";
layers = (
{
layerId = m01;
shapes = (
{
closed = 1;
nodes = (
(124,718,o),
(93,740,o),
(74,740,qs),
(58,740,o),
(40,715,o),
(45,700,qs),
(131,424,ls),
(139,400,o),
(179,370,o),
(204,370,qs),
(796,370,ls),
(821,370,o),
(861,400,o),
(869,424,qs),
(955,700,ls),
(960,715,o),
(942,740,o),
(926,740,qs),
(907,740,o),
(876,718,o),
(871,700,qs),
(802,478,ls),
(799,470,o),
(791,470,qs),
(209,470,ls),
(201,470,o),
(198,478,qs),
(129,700,ls)
);
}
);
vertWidth = 690;
width = 1000;
}
);
note = glyph08480;
},
{
glyphname = whitecornerbracketleft.vert;
lastChange = "2023-08-28 01:35:37 +0000";
layers = (
{
layerId = m01;
shapes = (
{
closed = 1;
nodes = (
(905,591,qs),
(905,289,ls),
(905,280,o),
(896,280,qs),
(838,280,ls),
(830,280,o),
(830,289,qs),
(830,468,ls),
(830,491,o),
(796,525,o),
(773,525,qs),
(234,525,ls),
(225,525,o),
(225,533,qs),
(225,591,ls),
(225,600,o),
(234,600,qs),
(896,600,ls),
(905,600,o)
);
},
{
closed = 1;
nodes = (
(165,522,ls),
(165,499,o),
(199,465,o),
(222,465,qs),
(761,465,ls),
(770,465,o),
(770,456,qs),
(770,277,ls),
(770,254,o),
(804,220,o),
(827,220,qs),
(908,220,ls),
(931,220,o),
(965,254,o),
(965,277,qs),
(965,603,ls),
(965,626,o),
(931,660,o),
(908,660,qs),
(222,660,ls),
(199,660,o),
(165,626,o),
(165,603,qs),
(165,600,l)
);
}
);
vertWidth = 705;
width = 1000;
}
);
note = glyph08474;
},
{
glyphname = whitecornerbracketright.vert;
lastChange = "2023-08-28 01:35:43 +0000";
layers = (
{
layerId = m01;
shapes = (
{
closed = 1;
nodes = (
(170,726,qs),
(170,547,ls),
(170,524,o),
(204,490,o),
(227,490,qs),
(766,490,ls),
(775,490,o),
(775,481,qs),
(775,424,ls),
(775,415,o),
(766,415,qs),
(104,415,ls),
(95,415,o),
(95,424,qs),
(95,726,ls),
(95,735,o),
(104,735,qs),
(161,735,ls),
(170,735,o)
);
},
{
closed = 1;
nodes = (
(35,389,o),
(69,355,o),
(92,355,qs),
(778,355,ls),
(801,355,o),
(835,389,o),
(835,412,qs),
(835,415,l),
(835,493,ls),
(835,516,o),
(801,550,o),
(778,550,qs),
(239,550,ls),
(230,550,o),
(230,559,qs),
(230,738,ls),
(230,761,o),
(196,795,o),
(173,795,qs),
(92,795,ls),
(69,795,o),
(35,761,o),
(35,738,qs),
(35,412,ls)
);
}
);
vertWidth = 705;
width = 1000;
}
);
note = glyph08475;
},
{
glyphname = whitelenticularbracketleft.vert;
lastChange = "2023-08-28 01:35:49 +0000";
layers = (
{
layerId = m01;
shapes = (
{
closed = 1;
nodes = (
(902,591,qs),
(902,420,ls),
(902,412,o),
(896,416,qs),
(716,535,o),
(284,535,o),
(104,416,qs),
(98,412,o),
(98,420,qs),
(98,591,ls),
(98,600,o),
(106,600,qs),
(894,600,ls),
(902,600,o)
);
},
{
closed = 1;
nodes = (
(38,335,o),
(67,322,o),
(80,332,qs),
(167,401,o),
(385,475,o),
(615,475,o),
(833,401,o),
(920,332,qs),
(933,322,o),
(962,335,o),
(962,352,qs),
(962,603,ls),
(962,626,o),
(929,660,o),
(906,660,qs),
(94,660,ls),
(71,660,o),
(38,626,o),
(38,603,qs),
(38,352,ls)
);
}
);
vertWidth = 660;
width = 1000;
}
);
note = glyph08481;
},
{
glyphname = whitelenticularbracketright.vert;
lastChange = "2023-08-28 01:35:56 +0000";
layers = (
{
layerId = m01;
shapes = (
{
closed = 1;
nodes = (
(716,525,o),
(896,644,qs),
(902,648,o),
(902,640,qs),
(902,468,ls),
(902,460,o),
(894,460,qs),
(106,460,ls),
(97,460,o),
(97,468,qs),
(97,640,ls),
(97,643,o),
(102,646,o),
(104,644,q),
(284,525,o)
);
},
{
closed = 1;
nodes = (
(38,434,o),
(71,400,o),
(94,400,qs),
(906,400,ls),
(929,400,o),
(962,434,o),
(962,457,qs),
(962,708,ls),
(962,725,o),
(933,738,o),
(920,728,qs),
(833,659,o),
(615,585,o),
(385,585,o),
(167,659,o),
(80,728,qs),
(67,738,o),
(38,725,o),
(38,708,qs),
(38,457,ls)
);
}
);
vertWidth = 660;
width = 1000;
}
);
note = glyph08482;
},
{
glyphname = braceleft.full.vert;
lastChange = "2023-08-28 01:36:02 +0000";
layers = (
{
layerId = m01;
shapes = (
{
closed = 1;
nodes = (
(595,405,o),
(658,405,qs),
(778,405,ls),
(844,405,o),
(882,367,o),
(882,310,qs),
(882,220,ls),
(882,204,o),
(906,180,o),
(938,180,o),
(962,204,o),
(962,220,qs),
(962,360,ls),
(962,437,o),
(891,505,o),
(808,505,qs),
(662,505,ls),
(542,505,o),
(542,590,qs),
(542,618,ls),
(542,635,o),
(517,660,o),
(483,660,o),
(458,635,o),
(458,618,qs),
(458,590,ls),
(458,505,o),
(338,505,qs),
(192,505,ls),
(109,505,o),
(38,437,o),
(38,360,qs),
(38,220,ls),
(38,204,o),
(62,180,o),
(94,180,o),
(118,204,o),
(118,220,qs),
(118,310,ls),
(118,367,o),
(156,405,o),
(222,405,qs),
(342,405,ls),
(405,405,o),
(476,448,o),
(498,498,q),
(498,500,o),
(502,500,o),
(502,498,q),
(524,448,o)
);
}
);
vertWidth = 790;
width = 1000;
}
);
note = glyph08522;
},
{
glyphname = braceright.full.vert;
lastChange = "2023-08-28 01:36:08 +0000";
layers = (
{
layerId = m01;
shapes = (
{
closed = 1;
nodes = (
(405,525,o),
(342,525,qs),
(222,525,ls),
(156,525,o),
(118,563,o),
(118,620,qs),
(118,710,ls),
(118,726,o),
(94,750,o),
(62,750,o),
(38,726,o),
(38,710,qs),
(38,570,ls),
(38,493,o),
(109,425,o),
(192,425,qs),
(338,425,ls),
(458,425,o),
(458,340,qs),
(458,312,ls),
(458,295,o),
(483,270,o),
(517,270,o),
(542,295,o),
(542,312,qs),
(542,340,ls),
(542,425,o),
(662,425,qs),
(808,425,ls),
(891,425,o),
(962,493,o),
(962,570,qs),
(962,710,ls),
(962,726,o),
(938,750,o),
(906,750,o),
(882,726,o),
(882,710,qs),
(882,620,ls),
(882,563,o),
(844,525,o),
(778,525,qs),
(658,525,ls),
(595,525,o),
(524,482,o),
(502,432,q),
(502,430,o),
(498,430,o),
(498,432,q),
(476,482,o)
);
}
);
vertWidth = 790;
width = 1000;
}
);
note = glyph08523;
},
{
glyphname = bracketleft.full.vert;
lastChange = "2023-08-28 01:36:18 +0000";
layers = (
{
layerId = m01;
shapes = (
{
closed = 1;
nodes = (
(38,314,o),
(62,290,o),
(94,290,o),
(118,314,o),
(118,330,qs),
(118,551,ls),
(118,560,o),
(126,560,qs),
(874,560,ls),
(883,560,o),
(883,551,qs),
(883,330,ls),
(883,314,o),
(906,290,o),
(940,290,o),
(963,314,o),
(963,330,qs),
(963,603,ls),
(963,626,o),
(929,660,o),
(906,660,qs),
(94,660,ls),
(71,660,o),
(38,626,o),
(38,603,qs),
(38,330,ls)
);
}
);
vertWidth = 690;
width = 1000;
}
);
note = glyph08520;
},
{
glyphname = bracketright.full.vert;
lastChange = "2023-08-28 01:36:24 +0000";
layers = (
{
layerId = m01;
shapes = (
{
closed = 1;
nodes = (
(118,716,o),
(94,740,o),
(62,740,o),
(38,716,o),
(38,700,qs),
(38,427,ls),
(38,404,o),
(71,370,o),
(94,370,qs),
(906,370,ls),
(929,370,o),
(962,404,o),
(962,427,qs),
(962,700,ls),
(962,716,o),
(938,740,o),
(906,740,o),
(882,716,o),
(882,700,qs),
(882,479,ls),
(882,470,o),
(874,470,qs),
(126,470,ls),
(118,470,o),
(118,479,qs),
(118,700,ls)
);
}
);
vertWidth = 690;
width = 1000;
}
);
note = glyph08521;
},
{
glyphname = parenleft.full.vert;
lastChange = "2023-08-28 01:36:31 +0000";
layers = (
{
layerId = m01;
shapes = (
{
closed = 1;
nodes = (
(63,368,o),
(72,377,qs),
(252,555,o),
(748,555,o),
(928,377,qs),
(938,367,o),
(962,377,o),
(962,390,qs),
(962,444,o),
(928,478,qs),
(842,566,o),
(622,660,o),
(378,660,o),
(158,566,o),
(72,478,qs),
(38,444,o),
(38,390,qs),
(38,378,o)
);
}
);
vertWidth = 625;
width = 1000;
}
);
note = glyph08516;
},
{
glyphname = parenright.full.vert;
lastChange = "2023-08-28 01:36:37 +0000";
layers = (
{
layerId = m01;
shapes = (
{
closed = 1;
nodes = (
(72,617,qs),
(158,529,o),
(378,435,o),
(622,435,o),
(842,529,o),
(928,617,qs),
(962,651,o),
(962,705,qs),
(962,717,o),
(937,727,o),
(928,718,qs),
(748,540,o),
(252,540,o),
(72,718,qs),
(62,728,o),
(38,718,o),
(38,705,qs),
(38,651,o)
);
}
